  0
SECTION
  2
HEADER
  9
$ACADVER
  1
AC1014
  9
$HANDSEED
  5
FFFF
  9
$MEASUREMENT
 70
     1
  0
ENDSEC
  0
SECTION
  2
TABLES
  0
TABLE
  2
VPORT
  5
8
330
0
100
AcDbSymbolTable
 70
     4
  0
VPORT
  5
2E
330
8
100
AcDbSymbolTableRecord
100
AcDbViewportTableRecord
  2
*ACTIVE
 70
     0
 10
0.0
 20
0.0
 11
1.0
 21
1.0
 12
210.0
 22
148.5
 13
0.0
 23
0.0
 14
10.0
 24
10.0
 15
10.0
 25
10.0
 16
0.0
 26
0.0
 36
1.0
 17
0.0
 27
0.0
 37
0.0
 40
341.0
 41
1.24
 42
50.0
 43
0.0
 44
0.0
 50
0.0
 51
0.0
 71
     0
 72
   100
 73
     1
 74
     3
 75
     0
 76
     0
 77
     0
 78
     0
  0
ENDTAB
  0
TABLE
  2
LTYPE
  5
5
330
0
100
AcDbSymbolTable
 70
     1
  0
LTYPE
  5
14
330
5
100
AcDbSymbolTableRecord
100
AcDbLinetypeTableRecord
  2
BYBLOCK
 70
     0
  3

 72
    65
 73
     0
 40
0.0
  0
LTYPE
  5
15
330
5
100
AcDbSymbolTableRecord
100
AcDbLinetypeTableRecord
  2
BYLAYER
 70
     0
  3

 72
    65
 73
     0
 40
0.0
  0
LTYPE
  5
16
330
5
100
AcDbSymbolTableRecord
100
AcDbLinetypeTableRecord
  2
CONTINUOUS
 70
     0
  3
Solid line
 72
    65
 73
     0
 40
0.0
  0
ENDTAB
  0
TABLE
  2
LAYER
  5
2
100
AcDbSymbolTable
 70
8
  0
LAYER
  5
50
100
AcDbSymbolTableRecord
100
AcDbLayerTableRecord
  2
0
 70
0
  6
CONTINUOUS
  0
LAYER
  5
51
100
AcDbSymbolTableRecord
100
AcDbLayerTableRecord
  2
size
 70
0
  6
CONTINUOUS
  0
LAYER
  5
52
100
AcDbSymbolTableRecord
100
AcDbLayerTableRecord
  2
drillHoles
 70
0
  6
CONTINUOUS
  0
LAYER
  5
53
100
AcDbSymbolTableRecord
100
AcDbLayerTableRecord
  2
ROSA
 70
0
  6
CONTINUOUS
  0
LAYER
  5
54
100
AcDbSymbolTableRecord
100
AcDbLayerTableRecord
  2
coconut
 70
0
  6
CONTINUOUS
  0
LAYER
  5
55
100
AcDbSymbolTableRecord
100
AcDbLayerTableRecord
  2
Wall
 70
0
  6
CONTINUOUS
  0
LAYER
  5
56
100
AcDbSymbolTableRecord
100
AcDbLayerTableRecord
  2
Base
 70
0
  6
CONTINUOUS
  0
LAYER
  5
57
100
AcDbSymbolTableRecord
100
AcDbLayerTableRecord
  2
Support
 70
0
  6
CONTINUOUS
  0
ENDTAB
  0
TABLE
  2
STYLE
  5
3
330
0
100
AcDbSymbolTable
 70
     1
  0
STYLE
  5
11
330
3
100
AcDbSymbolTableRecord
100
AcDbTextStyleTableRecord
  2
STANDARD
 70
     0
 40
0.0
 41
1.0
 50
0.0
 71
     0
 42
2.5
  3
txt
  4

  0
ENDTAB
  0
TABLE
  2
VIEW
  5
6
330
0
100
AcDbSymbolTable
 70
     0
  0
ENDTAB
  0
TABLE
  2
UCS
  5
7
330
0
100
AcDbSymbolTable
 70
     0
  0
ENDTAB
  0
TABLE
  2
APPID
  5
9
330
0
100
AcDbSymbolTable
 70
     2
  0
APPID
  5
12
330
9
100
AcDbSymbolTableRecord
100
AcDbRegAppTableRecord
  2
ACAD
 70
     0
  0
ENDTAB
  0
TABLE
  2
DIMSTYLE
  5
A
330
0
100
AcDbSymbolTable
 70
     1
  0
DIMSTYLE
105
27
330
A
100
AcDbSymbolTableRecord
100
AcDbDimStyleTableRecord
  2
ISO-25
 70
     0
  3

  4

  5

  6

  7

 40
1.0
 41
2.5
 42
0.625
 43
3.75
 44
1.25
 45
0.0
 46
0.0
 47
0.0
 48
0.0
140
2.5
141
2.5
142
0.0
143
0.03937007874016
144
1.0
145
0.0
146
1.0
147
0.625
 71
     0
 72
     0
 73
     0
 74
     0
 75
     0
 76
     0
 77
     1
 78
     8
170
     0
171
     3
172
     1
173
     0
174
     0
175
     0
176
     0
177
     0
178
     0
270
     2
271
     2
272
     2
273
     2
274
     3
340
11
275
     0
280
     0
281
     0
282
     0
283
     0
284
     8
285
     0
286
     0
287
     3
288
     0
  0
ENDTAB
  0
TABLE
  2
BLOCK_RECORD
  5
1
330
0
100
AcDbSymbolTable
 70
     1
  0
BLOCK_RECORD
  5
1F
330
1
100
AcDbSymbolTableRecord
100
AcDbBlockTableRecord
  2
*MODEL_SPACE
  0
BLOCK_RECORD
  5
1B
330
1
100
AcDbSymbolTableRecord
100
AcDbBlockTableRecord
  2
*PAPER_SPACE
  0
ENDTAB
  0
ENDSEC
  0
SECTION
  2
BLOCKS
  0
BLOCK
  5
20
330
1F
100
AcDbEntity
  8
0
100
AcDbBlockBegin
  2
*MODEL_SPACE
 70
     0
 10
0.0
 20
0.0
 30
0.0
  3
*MODEL_SPACE
  1

  0
ENDBLK
  5
21
330
1F
100
AcDbEntity
  8
0
100
AcDbBlockEnd
  0
BLOCK
  5
1C
330
1B
100
AcDbEntity
 67
     1
  8
0
100
AcDbBlockBegin
  2
*PAPER_SPACE
  1

  0
ENDBLK
  5
1D
330
1B
100
AcDbEntity
 67
     1
  8
0
100
AcDbBlockEnd
  0
ENDSEC
  0
SECTION
  2
ENTITIES
  0
LWPOLYLINE
  5
100
100
AcDbEntity
  8
size
 62
1
100
AcDbPolyline
 90
1
 70
1
 10
-0.394314
 20
-637.450556
 30
0.0
  0
LWPOLYLINE
  5
101
100
AcDbEntity
  8
drillHoles
 62
1
100
AcDbPolyline
 90
32
 70
1
 10
6.943770
 20
8.262206
 30
0.0
 10
6.943770
 20
3.261737
 30
0.0
 10
6.943770
 20
-1.738734
 30
0.0
 10
6.943770
 20
-6.739205
 30
0.0
 10
6.943770
 20
-11.739675
 30
0.0
 10
6.872999
 20
-12.084098
 30
0.0
 10
6.680035
 20
-12.364766
 30
0.0
 10
6.393341
 20
-12.553689
 30
0.0
 10
6.041560
 20
-12.622888
 30
0.0
 10
2.981586
 20
-12.622888
 30
0.0
 10
-0.078387
 20
-12.622888
 30
0.0
 10
-3.138361
 20
-12.622888
 30
0.0
 10
-6.198322
 20
-12.622888
 30
0.0
 10
-6.550128
 20
-12.553689
 30
0.0
 10
-6.836810
 20
-12.364766
 30
0.0
 10
-7.029774
 20
-12.084098
 30
0.0
 10
-7.100545
 20
-11.739675
 30
0.0
 10
-7.100545
 20
-6.739205
 30
0.0
 10
-7.100545
 20
-1.738734
 30
0.0
 10
-7.100545
 20
3.261737
 30
0.0
 10
-7.100545
 20
8.262206
 30
0.0
 10
-7.029774
 20
8.606630
 30
0.0
 10
-6.836810
 20
8.887297
 30
0.0
 10
-6.550128
 20
9.076220
 30
0.0
 10
-6.198322
 20
9.145414
 30
0.0
 10
-3.138361
 20
9.145414
 30
0.0
 10
-0.078387
 20
9.145414
 30
0.0
 10
2.981586
 20
9.145414
 30
0.0
 10
6.041560
 20
9.145414
 30
0.0
 10
6.393341
 20
9.076220
 30
0.0
 10
6.680035
 20
8.887297
 30
0.0
 10
6.872999
 20
8.606630
 30
0.0
  0
LWPOLYLINE
  5
102
100
AcDbEntity
  8
ROSA
 62
1
100
AcDbPolyline
 90
10
 70
1
 10
41.636221
 20
-14.929695
 30
0.0
 10
39.843965
 20
-12.275957
 30
0.0
 10
36.750664
 20
-12.032100
 30
0.0
 10
35.210651
 20
-13.523931
 30
0.0
 10
33.046665
 20
-10.870194
 30
0.0
 10
31.798723
 20
-13.982956
 30
0.0
 10
34.374263
 20
-17.239163
 30
0.0
 10
31.812000
 20
-16.751449
 30
0.0
 10
31.812000
 20
-20.050690
 30
0.0
 10
41.211392
 20
-20.882672
 30
0.0
  0
LWPOLYLINE
  5
103
100
AcDbEntity
  8
ROSA
 62
1
100
AcDbPolyline
 90
4
 70
1
 10
38.888094
 20
-17.239163
 30
0.0
 10
37.002908
 20
-17.325230
 30
0.0
 10
36.896699
 20
-16.450214
 30
0.0
 10
38.064985
 20
-15.575198
 30
0.0
  0
LWPOLYLINE
  5
104
100
AcDbEntity
  8
ROSA
 62
1
100
AcDbPolyline
 90
14
 70
1
 10
39.206717
 20
10.115806
 30
0.0
 10
37.095837
 20
8.265363
 30
0.0
 10
38.383608
 20
6.099337
 30
0.0
 10
37.746361
 20
5.554247
 30
0.0
 10
35.117719
 20
9.427268
 30
0.0
 10
31.838553
 20
7.548134
 30
0.0
 10
31.838553
 20
2.943543
 30
0.0
 10
34.201674
 20
-0.269631
 30
0.0
 10
36.365661
 20
1.121786
 30
0.0
 10
34.918578
 20
3.890283
 30
0.0
 10
35.515999
 20
4.306274
 30
0.0
 10
37.746361
 20
0.246773
 30
0.0
 10
41.729154
 20
4.091104
 30
0.0
 10
41.729154
 20
7.548134
 30
0.0
  0
LWPOLYLINE
  5
105
100
AcDbEntity
  8
ROSA
 62
1
100
AcDbPolyline
 90
6
 70
1
 10
44.652479
 20
3.125821
 30
0.0
 10
46.018651
 20
4.241741
 30
0.0
 10
44.009905
 20
5.865565
 30
0.0
 10
45.834662
 20
7.640468
 30
0.0
 10
44.065702
 20
8.718761
 30
0.0
 10
42.225257
 20
5.876518
 30
0.0
  0
LWPOLYLINE
  5
106
100
AcDbEntity
  8
ROSA
 62
1
100
AcDbPolyline
 90
112
 70
1
 10
27.317474
 20
-12.648481
 30
0.0
 10
27.515232
 20
-12.609615
 30
0.0
 10
27.881051
 20
-12.429223
 30
0.0
 10
28.664968
 20
-11.967716
 30
0.0
 10
30.117027
 20
-11.085506
 30
0.0
 10
30.732377
 20
-10.710570
 30
0.0
 10
31.347726
 20
-10.335630
 30
0.0
 10
31.963075
 20
-9.960694
 30
0.0
 10
32.578425
 20
-9.585758
 30
0.0
 10
32.546592
 20
-9.535658
 30
0.0
 10
32.514759
 20
-9.485554
 30
0.0
 10
32.482927
 20
-9.435453
 30
0.0
 10
32.451094
 20
-9.385353
 30
0.0
 10
32.419261
 20
-9.335252
 30
0.0
 10
32.387429
 20
-9.285148
 30
0.0
 10
32.355596
 20
-9.235048
 30
0.0
 10
32.323763
 20
-9.184947
 30
0.0
 10
32.402977
 20
-9.136445
 30
0.0
 10
32.482191
 20
-9.087938
 30
0.0
 10
32.561404
 20
-9.039435
 30
0.0
 10
32.640618
 20
-8.990932
 30
0.0
 10
32.719832
 20
-8.942426
 30
0.0
 10
32.799045
 20
-8.893919
 30
0.0
 10
32.878256
 20
-8.845413
 30
0.0
 10
32.957469
 20
-8.796906
 30
0.0
 10
32.972187
 20
-8.815216
 30
0.0
 10
32.986905
 20
-8.833526
 30
0.0
 10
33.001623
 20
-8.851799
 30
0.0
 10
33.016341
 20
-8.870109
 30
0.0
 10
33.056610
 20
-8.916865
 30
0.0
 10
33.122665
 20
-8.990064
 30
0.0
 10
33.205349
 20
-9.079677
 30
0.0
 10
33.295503
 20
-9.175672
 30
0.0
 10
34.332580
 20
-10.014635
 30
0.0
 10
35.541313
 20
-10.558299
 30
0.0
 10
36.853646
 20
-10.785863
 30
0.0
 10
38.201521
 20
-10.676514
 30
0.0
 10
39.260310
 20
-10.328693
 30
0.0
 10
40.207917
 20
-9.770363
 30
0.0
 10
41.008848
 20
-9.027935
 30
0.0
 10
41.627607
 20
-8.127816
 30
0.0
 10
41.770114
 20
-7.846195
 30
0.0
 10
41.880681
 20
-7.591301
 30
0.0
 10
41.972982
 20
-7.328234
 30
0.0
 10
42.060683
 20
-7.022095
 30
0.0
 10
42.182757
 20
-6.426477
 30
0.0
 10
42.230338
 20
-5.836853
 30
0.0
 10
42.203535
 20
-5.245682
 30
0.0
 10
42.102511
 20
-4.645407
 30
0.0
 10
41.791118
 20
-3.718524
 30
0.0
 10
41.304787
 20
-2.863115
 30
0.0
 10
40.665892
 20
-2.111153
 30
0.0
 10
39.896811
 20
-1.494600
 30
0.0
 10
39.209323
 20
-1.118901
 30
0.0
 10
38.467940
 20
-0.846639
 30
0.0
 10
37.694031
 20
-0.683951
 30
0.0
 10
36.908983
 20
-0.636973
 30
0.0
 10
35.635450
 20
-0.814914
 30
0.0
 10
34.466777
 20
-1.286834
 30
0.0
 10
33.453583
 20
-2.024655
 30
0.0
 10
32.646505
 20
-3.000311
 30
0.0
 10
32.433010
 20
-3.367361
 30
0.0
 10
32.260192
 20
-3.733839
 30
0.0
 10
32.120922
 20
-4.116876
 30
0.0
 10
32.008063
 20
-4.533597
 30
0.0
 10
31.946004
 20
-4.824202
 30
0.0
 10
31.904585
 20
-5.079810
 30
0.0
 10
31.880212
 20
-5.328317
 30
0.0
 10
31.869309
 20
-5.597599
 30
0.0
 10
31.896686
 20
-6.172977
 30
0.0
 10
31.994979
 20
-6.764258
 30
0.0
 10
32.157288
 20
-7.340602
 30
0.0
 10
32.376741
 20
-7.871165
 30
0.0
 10
32.387071
 20
-7.892064
 30
0.0
 10
32.397400
 20
-7.912964
 30
0.0
 10
32.407730
 20
-7.933863
 30
0.0
 10
32.418059
 20
-7.954763
 30
0.0
 10
32.338690
 20
-8.003021
 30
0.0
 10
32.259318
 20
-8.051280
 30
0.0
 10
32.179946
 20
-8.099542
 30
0.0
 10
32.100577
 20
-8.147800
 30
0.0
 10
32.021208
 20
-8.196062
 30
0.0
 10
31.941839
 20
-8.244325
 30
0.0
 10
31.862470
 20
-8.292590
 30
0.0
 10
31.783101
 20
-8.340853
 30
0.0
 10
31.750897
 20
-8.290989
 30
0.0
 10
31.718693
 20
-8.241130
 30
0.0
 10
31.686489
 20
-8.191270
 30
0.0
 10
31.654285
 20
-8.141407
 30
0.0
 10
31.622081
 20
-8.091540
 30
0.0
 10
31.589877
 20
-8.041669
 30
0.0
 10
31.557673
 20
-7.991802
 30
0.0
 10
31.525469
 20
-7.941935
 30
0.0
 10
30.910329
 20
-8.317593
 30
0.0
 10
30.295185
 20
-8.693248
 30
0.0
 10
29.680042
 20
-9.068906
 30
0.0
 10
29.064902
 20
-9.444564
 30
0.0
 10
27.690730
 20
-10.285402
 30
0.0
 10
26.940921
 20
-10.752179
 30
0.0
 10
26.609675
 20
-10.976438
 30
0.0
 10
26.491209
 20
-11.089733
 30
0.0
 10
26.293850
 20
-11.542329
 30
0.0
 10
26.344013
 20
-12.006174
 30
0.0
 10
26.609621
 20
-12.394675
 30
0.0
 10
27.058600
 20
-12.621224
 30
0.0
 10
27.127687
 20
-12.634173
 30
0.0
 10
27.199498
 20
-12.643583
 30
0.0
 10
27.265543
 20
-12.648543
 30
0.0
 10
27.317326
 20
-12.648244
 30
0.0
 10
27.317336
 20
-12.648295
 30
0.0
 10
27.317346
 20
-12.648346
 30
0.0
 10
27.317360
 20
-12.648401
 30
0.0
  0
LWPOLYLINE
  5
107
100
AcDbEntity
  8
ROSA
 62
1
100
AcDbPolyline
 90
40
 70
1
 10
35.755020
 20
-9.634414
 30
0.0
 10
35.384077
 20
-9.494679
 30
0.0
 10
35.042036
 20
-9.327888
 30
0.0
 10
34.713829
 20
-9.125769
 30
0.0
 10
34.384386
 20
-8.880045
 30
0.0
 10
34.122353
 20
-8.653962
 30
0.0
 10
33.897620
 20
-8.425056
 30
0.0
 10
33.693428
 20
-8.174594
 30
0.0
 10
33.493008
 20
-7.883843
 30
0.0
 10
33.006879
 20
-6.835301
 30
0.0
 10
32.834841
 20
-5.726279
 30
0.0
 10
32.977663
 20
-4.615021
 30
0.0
 10
33.436111
 20
-3.559764
 30
0.0
 10
34.193380
 20
-2.651523
 30
0.0
 10
35.165157
 20
-2.003591
 30
0.0
 10
36.288580
 20
-1.646134
 30
0.0
 10
37.500780
 20
-1.609317
 30
0.0
 10
37.807869
 20
-1.659997
 30
0.0
 10
38.156017
 20
-1.745061
 30
0.0
 10
38.499793
 20
-1.851901
 30
0.0
 10
38.793770
 20
-1.967905
 30
0.0
 10
39.900207
 20
-2.696291
 30
0.0
 10
40.706708
 20
-3.692883
 30
0.0
 10
41.168936
 20
-4.881334
 30
0.0
 10
41.242570
 20
-6.185302
 30
0.0
 10
41.194574
 20
-6.478628
 30
0.0
 10
41.111573
 20
-6.822452
 30
0.0
 10
41.009682
 20
-7.157555
 30
0.0
 10
40.905032
 20
-7.424722
 30
0.0
 10
40.550859
 20
-8.038762
 30
0.0
 10
40.104199
 20
-8.581853
 30
0.0
 10
39.576503
 20
-9.042211
 30
0.0
 10
38.979210
 20
-9.408054
 30
0.0
 10
38.211807
 20
-9.697780
 30
0.0
 10
37.394369
 20
-9.833787
 30
0.0
 10
36.563283
 20
-9.813508
 30
0.0
 10
35.754933
 20
-9.634421
 30
0.0
 10
35.754953
 20
-9.634414
 30
0.0
 10
35.754977
 20
-9.634410
 30
0.0
 10
35.754997
 20
-9.634403
 30
0.0
  0
LWPOLYLINE
  5
108
100
AcDbEntity
  8
ROSA
 62
1
100
AcDbPolyline
 90
32
 70
1
 10
33.777780
 20
-5.172836
 30
0.0
 10
33.854003
 20
-5.143001
 30
0.0
 10
33.916294
 20
-5.081637
 30
0.0
 10
33.966335
 20
-4.986408
 30
0.0
 10
34.005807
 20
-4.854967
 30
0.0
 10
34.058407
 20
-4.676734
 30
0.0
 10
34.136709
 20
-4.479955
 30
0.0
 10
34.236342
 20
-4.274479
 30
0.0
 10
34.352932
 20
-4.070160
 30
0.0
 10
34.441034
 20
-3.917897
 30
0.0
 10
34.484128
 20
-3.811984
 30
0.0
 10
34.487166
 20
-3.732807
 30
0.0
 10
34.454725
 20
-3.660746
 30
0.0
 10
34.389500
 20
-3.593937
 30
0.0
 10
34.305125
 20
-3.556748
 30
0.0
 10
34.213509
 20
-3.551933
 30
0.0
 10
34.126559
 20
-3.582280
 30
0.0
 10
33.974923
 20
-3.754538
 30
0.0
 10
33.797815
 20
-4.066302
 30
0.0
 10
33.633291
 20
-4.441103
 30
0.0
 10
33.519392
 20
-4.802470
 30
0.0
 10
33.497990
 20
-4.928188
 30
0.0
 10
33.502243
 20
-5.020390
 30
0.0
 10
33.534245
 20
-5.088217
 30
0.0
 10
33.596060
 20
-5.140823
 30
0.0
 10
33.644164
 20
-5.169747
 30
0.0
 10
33.678086
 20
-5.182476
 30
0.0
 10
33.716309
 20
-5.182203
 30
0.0
 10
33.777328
 20
-5.172136
 30
0.0
 10
33.777469
 20
-5.172311
 30
0.0
 10
33.777615
 20
-5.172490
 30
0.0
 10
33.777756
 20
-5.172665
 30
0.0
  0
LWPOLYLINE
  5
109
100
AcDbEntity
  8
ROSA
 62
1
100
AcDbPolyline
 90
48
 70
1
 10
40.016148
 20
-4.175245
 30
0.0
 10
40.043525
 20
-4.159488
 30
0.0
 10
40.078983
 20
-4.141069
 30
0.0
 10
40.108048
 20
-4.114480
 30
0.0
 10
40.130530
 20
-4.085447
 30
0.0
 10
40.164664
 20
-4.000145
 30
0.0
 10
40.156664
 20
-3.907469
 30
0.0
 10
40.101695
 20
-3.791063
 30
0.0
 10
39.994891
 20
-3.634579
 30
0.0
 10
39.359879
 20
-2.970815
 30
0.0
 10
38.588451
 20
-2.488518
 30
0.0
 10
37.722218
 20
-2.207108
 30
0.0
 10
36.802798
 20
-2.145985
 30
0.0
 10
36.587065
 20
-2.162836
 30
0.0
 10
36.446285
 20
-2.185960
 30
0.0
 10
36.359230
 20
-2.220756
 30
0.0
 10
36.304679
 20
-2.272644
 30
0.0
 10
36.267938
 20
-2.338162
 30
0.0
 10
36.255043
 20
-2.402852
 30
0.0
 10
36.265913
 20
-2.468993
 30
0.0
 10
36.300480
 20
-2.538870
 30
0.0
 10
36.355048
 20
-2.597235
 30
0.0
 10
36.434899
 20
-2.629405
 30
0.0
 10
36.553396
 20
-2.638122
 30
0.0
 10
36.723908
 20
-2.626196
 30
0.0
 10
36.976223
 20
-2.608725
 30
0.0
 10
37.213851
 20
-2.615108
 30
0.0
 10
37.465879
 20
-2.647642
 30
0.0
 10
37.761406
 20
-2.708663
 30
0.0
 10
37.972889
 20
-2.760058
 30
0.0
 10
38.126807
 20
-2.804826
 30
0.0
 10
38.258391
 20
-2.854671
 30
0.0
 10
38.402884
 20
-2.921283
 30
0.0
 10
38.619008
 20
-3.035501
 30
0.0
 10
38.823757
 20
-3.162900
 30
0.0
 10
39.016086
 20
-3.302781
 30
0.0
 10
39.194943
 20
-3.454446
 30
0.0
 10
39.315431
 20
-3.568653
 30
0.0
 10
39.417262
 20
-3.676761
 30
0.0
 10
39.522749
 20
-3.804106
 30
0.0
 10
39.654191
 20
-3.976014
 30
0.0
 10
39.753662
 20
-4.096728
 30
0.0
 10
39.837504
 20
-4.164854
 30
0.0
 10
39.933319
 20
-4.198665
 30
0.0
 10
40.016162
 20
-4.175212
 30
0.0
 10
40.016158
 20
-4.175216
 30
0.0
 10
40.016151
 20
-4.175223
 30
0.0
 10
40.016148
 20
-4.175227
 30
0.0
  0
LWPOLYLINE
  5
10a
100
AcDbEntity
  8
ROSA
 62
7
100
AcDbPolyline
 90
8
 70
1
 10
41.325466
 20
17.867984
 30
0.0
 10
32.297012
 20
22.008735
 30
0.0
 10
31.668035
 20
18.051436
 30
0.0
 10
33.987391
 20
17.736947
 30
0.0
 10
34.066012
 20
14.552764
 30
0.0
 10
31.589411
 20
13.832064
 30
0.0
 10
32.270804
 20
10.018908
 30
0.0
 10
41.063391
 20
15.247256
 30
0.0
  0
LWPOLYLINE
  5
10b
100
AcDbEntity
  8
ROSA
 62
7
100
AcDbPolyline
 90
4
 70
1
 10
37.892294
 20
15.915544
 30
0.0
 10
36.555716
 20
15.378293
 30
0.0
 10
36.503300
 20
17.383152
 30
0.0
 10
37.852984
 20
16.924525
 30
0.0
  0
LWPOLYLINE
  5
10c
100
AcDbEntity
  8
coconut
 62
1
100
AcDbPolyline
 90
396
 70
1
 10
-15.579333
 20
-2.190040
 30
0.0
 10
-15.591413
 20
-2.257540
 30
0.0
 10
-15.627223
 20
-2.316840
 30
0.0
 10
-15.680173
 20
-2.362040
 30
0.0
 10
-15.744403
 20
-2.386840
 30
0.0
 10
-16.701255
 20
-2.569060
 30
0.0
 10
-17.658088
 20
-2.751280
 30
0.0
 10
-18.614930
 20
-2.933510
 30
0.0
 10
-19.571754
 20
-3.115730
 30
0.0
 10
-19.639954
 20
-3.140330
 30
0.0
 10
-19.703284
 20
-3.184330
 30
0.0
 10
-19.754884
 20
-3.241730
 30
0.0
 10
-19.787724
 20
-3.306230
 30
0.0
 10
-20.050357
 20
-3.958020
 30
0.0
 10
-20.312936
 20
-4.609790
 30
0.0
 10
-20.575542
 20
-5.261560
 30
0.0
 10
-20.838148
 20
-5.913350
 30
0.0
 10
-20.859078
 20
-5.983450
 30
0.0
 10
-20.860878
 20
-6.061950
 30
0.0
 10
-20.845818
 20
-6.139350
 30
0.0
 10
-20.815138
 20
-6.206050
 30
0.0
 10
-20.266923
 20
-7.019190
 30
0.0
 10
-19.718690
 20
-7.832330
 30
0.0
 10
-19.170474
 20
-8.645470
 30
0.0
 10
-18.622258
 20
-9.458620
 30
0.0
 10
-18.594738
 20
-9.522720
 30
0.0
 10
-18.592038
 20
-9.593120
 30
0.0
 10
-18.608278
 20
-9.661620
 30
0.0
 10
-18.646338
 20
-9.719820
 30
0.0
 10
-19.319446
 20
-10.404650
 30
0.0
 10
-19.992538
 20
-11.089480
 30
0.0
 10
-20.665648
 20
-11.774330
 30
0.0
 10
-21.338756
 20
-12.459150
 30
0.0
 10
-21.395326
 20
-12.498150
 30
0.0
 10
-21.463076
 20
-12.515050
 30
0.0
 10
-21.532726
 20
-12.510050
 30
0.0
 10
-21.595146
 20
-12.481550
 30
0.0
 10
-22.380682
 20
-11.933280
 30
0.0
 10
-23.166209
 20
-11.385020
 30
0.0
 10
-23.951738
 20
-10.836760
 30
0.0
 10
-24.737282
 20
-10.288510
 30
0.0
 10
-24.802772
 20
-10.258010
 30
0.0
 10
-24.878632
 20
-10.244610
 30
0.0
 10
-24.955662
 20
-10.249610
 30
0.0
 10
-25.024312
 20
-10.272110
 30
0.0
 10
-25.686118
 20
-10.560600
 30
0.0
 10
-26.347896
 20
-10.849120
 30
0.0
 10
-27.009676
 20
-11.137600
 30
0.0
 10
-27.671465
 20
-11.426100
 30
0.0
 10
-27.735415
 20
-11.460800
 30
0.0
 10
-27.791885
 20
-11.514500
 30
0.0
 10
-27.835095
 20
-11.579900
 30
0.0
 10
-27.858725
 20
-11.649800
 30
0.0
 10
-28.030698
 20
-12.591260
 30
0.0
 10
-28.202825
 20
-13.532720
 30
0.0
 10
-28.374798
 20
-14.474160
 30
0.0
 10
-28.546935
 20
-15.415620
 30
0.0
 10
-28.572095
 20
-15.480120
 30
0.0
 10
-28.618095
 20
-15.532620
 30
0.0
 10
-28.678455
 20
-15.567920
 30
0.0
 10
-28.746025
 20
-15.581020
 30
0.0
 10
-29.697932
 20
-15.581020
 30
0.0
 10
-30.649858
 20
-15.581020
 30
0.0
 10
-31.601801
 20
-15.581020
 30
0.0
 10
-32.553727
 20
-15.581020
 30
0.0
 10
-32.621567
 20
-15.567620
 30
0.0
 10
-32.681927
 20
-15.531120
 30
0.0
 10
-32.728027
 20
-15.477420
 30
0.0
 10
-32.753007
 20
-15.412620
 30
0.0
 10
-32.920460
 20
-14.494780
 30
0.0
 10
-33.087897
 20
-13.576950
 30
0.0
 10
-33.255531
 20
-12.659110
 30
0.0
 10
-33.422976
 20
-11.741280
 30
0.0
 10
-33.447146
 20
-11.672280
 30
0.0
 10
-33.490636
 20
-11.608380
 30
0.0
 10
-33.547556
 20
-11.556680
 30
0.0
 10
-33.611696
 20
-11.524180
 30
0.0
 10
-34.316107
 20
-11.237660
 30
0.0
 10
-35.020528
 20
-10.951130
 30
0.0
 10
-35.724930
 20
-10.664600
 30
0.0
 10
-36.429350
 20
-10.378070
 30
0.0
 10
-36.498090
 20
-10.356970
 30
0.0
 10
-36.574500
 20
-10.354970
 30
0.0
 10
-36.649650
 20
-10.370370
 30
0.0
 10
-36.714510
 20
-10.402370
 30
0.0
 10
-37.461572
 20
-10.923470
 30
0.0
 10
-38.208633
 20
-11.444560
 30
0.0
 10
-38.955660
 20
-11.965660
 30
0.0
 10
-39.702739
 20
-12.486750
 30
0.0
 10
-39.765789
 20
-12.514750
 30
0.0
 10
-39.835339
 20
-12.519750
 30
0.0
 10
-39.902729
 20
-12.502050
 30
0.0
 10
-39.959299
 20
-12.463250
 30
0.0
 10
-40.632787
 20
-11.778020
 30
0.0
 10
-41.306266
 20
-11.092800
 30
0.0
 10
-41.979726
 20
-10.407580
 30
0.0
 10
-42.653223
 20
-9.722360
 30
0.0
 10
-42.691023
 20
-9.664260
 30
0.0
 10
-42.707263
 20
-9.595760
 30
0.0
 10
-42.704563
 20
-9.525360
 30
0.0
 10
-42.677593
 20
-9.461360
 30
0.0
 10
-42.173895
 20
-8.715130
 30
0.0
 10
-41.670217
 20
-7.968900
 30
0.0
 10
-41.166528
 20
-7.222670
 30
0.0
 10
-40.662831
 20
-6.476430
 30
0.0
 10
-40.633071
 20
-6.410930
 30
0.0
 10
-40.622471
 20
-6.334930
 30
0.0
 10
-40.629771
 20
-6.258130
 30
0.0
 10
-40.655031
 20
-6.190030
 30
0.0
 10
-40.828259
 20
-5.861390
 30
0.0
 10
-41.001476
 20
-5.532750
 30
0.0
 10
-41.174713
 20
-5.204110
 30
0.0
 10
-41.347923
 20
-4.875470
 30
0.0
 10
-41.365953
 20
-4.811370
 30
0.0
 10
-41.356953
 20
-4.749170
 30
0.0
 10
-41.324573
 20
-4.695870
 30
0.0
 10
-41.271443
 20
-4.658170
 30
0.0
 10
-40.735297
 20
-4.438170
 30
0.0
 10
-40.199152
 20
-4.218160
 30
0.0
 10
-39.662989
 20
-3.998150
 30
0.0
 10
-39.126843
 20
-3.778150
 30
0.0
 10
-38.813703
 20
-4.277790
 30
0.0
 10
-38.461141
 20
-4.754480
 30
0.0
 10
-38.072433
 20
-5.198780
 30
0.0
 10
-37.650869
 20
-5.601210
 30
0.0
 10
-37.399260
 20
-5.801970
 30
0.0
 10
-37.077631
 20
-6.035490
 30
0.0
 10
-36.743796
 20
-6.261250
 30
0.0
 10
-36.455599
 20
-6.438720
 30
0.0
 10
-34.996313
 20
-7.100570
 30
0.0
 10
-33.437095
 20
-7.485380
 30
0.0
 10
-31.780947
 20
-7.592860
 30
0.0
 10
-30.030884
 20
-7.422690
 30
0.0
 10
-29.477084
 20
-7.298490
 30
0.0
 10
-28.872678
 20
-7.114790
 30
0.0
 10
-28.280659
 20
-6.892980
 30
0.0
 10
-27.764088
 20
-6.654450
 30
0.0
 10
-26.674206
 20
-5.915880
 30
0.0
 10
-25.843015
 20
-4.977200
 30
0.0
 10
-25.270985
 20
-3.838870
 30
0.0
 10
-24.958467
 20
-2.501360
 30
0.0
 10
-24.931227
 20
-2.262270
 30
0.0
 10
-24.911387
 20
-2.027470
 30
0.0
 10
-24.900787
 20
-1.791880
 30
0.0
 10
-24.898087
 20
-1.550460
 30
0.0
 10
-24.898988
 20
-1.298030
 30
0.0
 10
-24.907988
 20
-1.029280
 30
0.0
 10
-24.923048
 20
-0.738920
 30
0.0
 10
-24.946048
 20
-0.421660
 30
0.0
 10
-25.040708
 20
0.269320
 30
0.0
 10
-25.205799
 20
1.174110
 30
0.0
 10
-25.374876
 20
1.957590
 30
0.0
 10
-25.481726
 20
2.284620
 30
0.0
 10
-25.536836
 20
2.248220
 30
0.0
 10
-25.656634
 20
2.157220
 30
0.0
 10
-25.823709
 20
2.025270
 30
0.0
 10
-26.020471
 20
1.865950
 30
0.0
 10
-26.145536
 20
1.764050
 30
0.0
 10
-26.270592
 20
1.662160
 30
0.0
 10
-26.395658
 20
1.560270
 30
0.0
 10
-26.520416
 20
1.458370
 30
0.0
 10
-26.489746
 20
1.306850
 30
0.0
 10
-26.459166
 20
1.155310
 30
0.0
 10
-26.428486
 20
1.003780
 30
0.0
 10
-26.397906
 20
0.852250
 30
0.0
 10
-26.213322
 20
-0.359650
 30
0.0
 10
-26.157212
 20
-1.501760
 30
0.0
 10
-26.229292
 20
-2.520090
 30
0.0
 10
-26.429610
 20
-3.360680
 30
0.0
 10
-26.465600
 20
-3.443780
 30
0.0
 10
-26.520360
 20
-3.550810
 30
0.0
 10
-26.586390
 20
-3.667860
 30
0.0
 10
-26.656030
 20
-3.781120
 30
0.0
 10
-26.746470
 20
-3.914610
 30
0.0
 10
-26.822610
 20
-4.007710
 30
0.0
 10
-26.898920
 20
-4.075210
 30
0.0
 10
-26.989360
 20
-4.132110
 30
0.0
 10
-27.286886
 20
-4.233040
 30
0.0
 10
-27.592674
 20
-4.207740
 30
0.0
 10
-27.912636
 20
-4.054960
 30
0.0
 10
-28.252595
 20
-3.773030
 30
0.0
 10
-28.485225
 20
-3.517630
 30
0.0
 10
-28.713300
 20
-3.212350
 30
0.0
 10
-28.944532
 20
-2.845790
 30
0.0
 10
-29.186769
 20
-2.406520
 30
0.0
 10
-29.287892
 20
-2.191670
 30
0.0
 10
-29.419877
 20
-1.888490
 30
0.0
 10
-29.537869
 20
-1.602650
 30
0.0
 10
-29.597139
 20
-1.439890
 30
0.0
 10
-29.754823
 20
-1.465890
 30
0.0
 10
-30.182411
 20
-1.554590
 30
0.0
 10
-30.814304
 20
-1.692250
 30
0.0
 10
-31.584793
 20
-1.864940
 30
0.0
 10
-32.351529
 20
-2.036960
 30
0.0
 10
-32.973435
 20
-2.172400
 30
0.0
 10
-33.386573
 20
-2.257600
 30
0.0
 10
-33.527127
 20
-2.278900
 30
0.0
 10
-33.373402
 20
-2.184800
 30
0.0
 10
-32.985551
 20
-1.954740
 30
0.0
 10
-32.422108
 20
-1.623430
 30
0.0
 10
-31.741684
 20
-1.225660
 30
0.0
 10
-31.305542
 20
-0.971390
 30
0.0
 10
-30.869367
 20
-0.717140
 30
0.0
 10
-30.433209
 20
-0.462880
 30
0.0
 10
-29.997069
 20
-0.208620
 30
0.0
 10
-29.999769
 20
-0.182620
 30
0.0
 10
-30.007069
 20
-0.156620
 30
0.0
 10
-30.009769
 20
-0.130620
 30
0.0
 10
-30.017069
 20
-0.104620
 30
0.0
 10
-30.024369
 20
-0.079220
 30
0.0
 10
-30.027069
 20
-0.053620
 30
0.0
 10
-30.034369
 20
-0.028020
 30
0.0
 10
-30.037069
 20
-0.002620
 30
0.0
 10
-30.258531
 20
-0.052320
 30
0.0
 10
-30.480011
 20
-0.101920
 30
0.0
 10
-30.701491
 20
-0.151620
 30
0.0
 10
-30.922962
 20
-0.201320
 30
0.0
 10
-31.415330
 20
-0.310880
 30
0.0
 10
-31.673154
 20
-0.362480
 30
0.0
 10
-31.761824
 20
-0.367480
 30
0.0
 10
-31.746764
 20
-0.333480
 30
0.0
 10
-31.580935
 20
-0.166150
 30
0.0
 10
-31.255436
 20
0.153620
 30
0.0
 10
-30.868532
 20
0.529740
 30
0.0
 10
-30.518305
 20
0.866170
 30
0.0
 10
-30.452545
 20
0.928370
 30
0.0
 10
-30.386965
 20
0.990570
 30
0.0
 10
-30.321385
 20
1.052770
 30
0.0
 10
-30.255805
 20
1.114970
 30
0.0
 10
-30.264805
 20
1.203170
 30
0.0
 10
-30.273805
 20
1.291370
 30
0.0
 10
-30.282805
 20
1.379570
 30
0.0
 10
-30.291805
 20
1.467770
 30
0.0
 10
-30.356945
 20
3.056900
 30
0.0
 10
-30.194741
 20
4.317320
 30
0.0
 10
-29.825635
 20
5.167650
 30
0.0
 10
-29.270041
 20
5.526400
 30
0.0
 10
-29.043653
 20
5.521400
 30
0.0
 10
-28.807370
 20
5.450400
 30
0.0
 10
-28.564709
 20
5.314850
 30
0.0
 10
-28.319225
 20
5.116270
 30
0.0
 10
-28.254365
 20
5.057870
 30
0.0
 10
-28.198255
 20
5.010870
 30
0.0
 10
-28.156575
 20
4.980170
 30
0.0
 10
-28.135555
 20
4.969470
 30
0.0
 10
-27.980214
 20
5.086520
 30
0.0
 10
-27.657224
 20
5.342160
 30
0.0
 10
-27.334151
 20
5.602320
 30
0.0
 10
-27.178631
 20
5.732990
 30
0.0
 10
-27.224101
 20
5.799990
 30
0.0
 10
-27.354128
 20
5.942190
 30
0.0
 10
-27.525361
 20
6.114360
 30
0.0
 10
-27.694801
 20
6.271310
 30
0.0
 10
-28.568316
 20
6.879410
 30
0.0
 10
-29.552058
 20
7.277260
 30
0.0
 10
-30.641696
 20
7.463760
 30
0.0
 10
-31.832999
 20
7.437860
 30
0.0
 10
-32.341017
 20
7.361160
 30
0.0
 10
-32.938749
 20
7.237680
 30
0.0
 10
-33.529894
 20
7.089510
 30
0.0
 10
-34.018337
 20
6.938790
 30
0.0
 10
-35.504973
 20
6.269420
 30
0.0
 10
-36.821007
 20
5.399320
 30
0.0
 10
-37.943832
 20
4.352370
 30
0.0
 10
-38.850789
 20
3.152500
 30
0.0
 10
-39.455213
 20
3.400850
 30
0.0
 10
-40.059664
 20
3.649200
 30
0.0
 10
-40.664106
 20
3.897550
 30
0.0
 10
-41.268549
 20
4.145900
 30
0.0
 10
-41.322399
 20
4.183600
 30
0.0
 10
-41.354789
 20
4.236900
 30
0.0
 10
-41.363789
 20
4.299100
 30
0.0
 10
-41.345759
 20
4.363200
 30
0.0
 10
-41.172522
 20
4.691850
 30
0.0
 10
-40.999304
 20
5.020480
 30
0.0
 10
-40.826076
 20
5.349140
 30
0.0
 10
-40.652858
 20
5.677770
 30
0.0
 10
-40.627878
 20
5.745870
 30
0.0
 10
-40.620578
 20
5.822870
 30
0.0
 10
-40.631178
 20
5.898870
 30
0.0
 10
-40.661758
 20
5.964370
 30
0.0
 10
-41.165438
 20
6.710590
 30
0.0
 10
-41.669153
 20
7.456830
 30
0.0
 10
-42.172842
 20
8.203060
 30
0.0
 10
-42.676539
 20
8.949290
 30
0.0
 10
-42.703329
 20
9.014090
 30
0.0
 10
-42.706029
 20
9.085490
 30
0.0
 10
-42.687999
 20
9.154390
 30
0.0
 10
-42.649759
 20
9.212190
 30
0.0
 10
-41.976272
 20
9.897020
 30
0.0
 10
-41.302793
 20
10.581850
 30
0.0
 10
-40.629332
 20
11.266670
 30
0.0
 10
-39.955863
 20
11.951510
 30
0.0
 10
-39.899293
 20
11.990410
 30
0.0
 10
-39.831903
 20
12.008610
 30
0.0
 10
-39.762353
 20
12.003610
 30
0.0
 10
-39.699303
 20
11.975810
 30
0.0
 10
-38.952259
 20
11.454330
 30
0.0
 10
-38.205215
 20
10.932830
 30
0.0
 10
-37.458136
 20
10.411340
 30
0.0
 10
-36.711092
 20
9.889850
 30
0.0
 10
-36.646862
 20
9.858150
 30
0.0
 10
-36.571812
 20
9.843450
 30
0.0
 10
-36.495052
 20
9.846450
 30
0.0
 10
-36.425772
 20
9.867850
 30
0.0
 10
-35.721361
 20
10.154000
 30
0.0
 10
-35.016942
 20
10.440130
 30
0.0
 10
-34.312512
 20
10.726270
 30
0.0
 10
-33.608118
 20
11.012400
 30
0.0
 10
-33.543978
 20
11.045700
 30
0.0
 10
-33.487058
 20
11.097300
 30
0.0
 10
-33.443568
 20
11.160700
 30
0.0
 10
-33.419488
 20
11.229600
 30
0.0
 10
-33.252035
 20
12.147440
 30
0.0
 10
-33.084418
 20
13.065270
 30
0.0
 10
-32.916964
 20
13.983100
 30
0.0
 10
-32.749527
 20
14.900950
 30
0.0
 10
-32.724367
 20
14.965450
 30
0.0
 10
-32.678367
 20
15.017850
 30
0.0
 10
-32.618207
 20
15.053150
 30
0.0
 10
-32.550367
 20
15.066050
 30
0.0
 10
-31.598441
 20
15.066950
 30
0.0
 10
-30.646498
 20
15.067850
 30
0.0
 10
-29.694590
 20
15.068760
 30
0.0
 10
-28.742646
 20
15.069660
 30
0.0
 10
-28.675256
 20
15.057060
 30
0.0
 10
-28.615176
 20
15.020960
 30
0.0
 10
-28.569176
 20
14.967660
 30
0.0
 10
-28.543556
 20
14.902960
 30
0.0
 10
-28.371403
 20
13.961910
 30
0.0
 10
-28.199456
 20
13.020850
 30
0.0
 10
-28.027302
 20
12.079800
 30
0.0
 10
-27.855166
 20
11.138740
 30
0.0
 10
-27.831086
 20
11.068540
 30
0.0
 10
-27.788056
 20
11.002540
 30
0.0
 10
-27.731946
 20
10.948440
 30
0.0
 10
-27.667996
 20
10.913540
 30
0.0
 10
-27.006190
 20
10.625820
 30
0.0
 10
-26.344447
 20
10.338110
 30
0.0
 10
-25.682651
 20
10.050390
 30
0.0
 10
-25.020863
 20
9.762670
 30
0.0
 10
-24.952213
 20
9.739670
 30
0.0
 10
-24.875353
 20
9.734670
 30
0.0
 10
-24.799493
 20
9.747470
 30
0.0
 10
-24.734003
 20
9.778470
 30
0.0
 10
-23.948467
 20
10.327520
 30
0.0
 10
-23.162904
 20
10.876570
 30
0.0
 10
-22.377386
 20
11.425610
 30
0.0
 10
-21.591840
 20
11.974670
 30
0.0
 10
-21.529420
 20
12.002470
 30
0.0
 10
-21.459770
 20
12.007470
 30
0.0
 10
-21.391930
 20
11.989270
 30
0.0
 10
-21.335360
 20
11.950170
 30
0.0
 10
-20.662251
 20
11.265340
 30
0.0
 10
-19.989125
 20
10.580510
 30
0.0
 10
-19.316051
 20
9.895680
 30
0.0
 10
-18.642942
 20
9.210840
 30
0.0
 10
-18.604872
 20
9.152940
 30
0.0
 10
-18.588632
 20
9.085140
 30
0.0
 10
-18.595932
 20
9.015540
 30
0.0
 10
-18.623452
 20
8.952440
 30
0.0
 10
-19.171666
 20
8.139310
 30
0.0
 10
-19.719883
 20
7.326170
 30
0.0
 10
-20.268099
 20
6.513040
 30
0.0
 10
-20.816313
 20
5.699890
 30
0.0
 10
-20.846983
 20
5.633890
 30
0.0
 10
-20.862043
 20
5.556390
 30
0.0
 10
-20.860243
 20
5.477490
 30
0.0
 10
-20.839133
 20
5.407090
 30
0.0
 10
-20.576553
 20
4.754520
 30
0.0
 10
-20.313930
 20
4.101970
 30
0.0
 10
-20.051324
 20
3.449420
 30
0.0
 10
-19.788726
 20
2.796840
 30
0.0
 10
-19.756076
 20
2.731740
 30
0.0
 10
-19.704476
 20
2.673840
 30
0.0
 10
-19.641146
 20
2.629440
 30
0.0
 10
-19.572946
 20
2.604840
 30
0.0
 10
-18.616111
 20
2.423780
 30
0.0
 10
-17.659260
 20
2.242740
 30
0.0
 10
-16.702445
 20
2.061700
 30
0.0
 10
-15.745630
 20
1.880640
 30
0.0
 10
-15.681400
 20
1.855240
 30
0.0
 10
-15.628450
 20
1.808940
 30
0.0
 10
-15.592910
 20
1.748140
 30
0.0
 10
-15.580830
 20
1.679340
 30
0.0
 10
-15.580830
 20
0.710720
 30
0.0
 10
-15.580830
 20
-0.257890
 30
0.0
 10
-15.580830
 20
-1.226500
 30
0.0
 10
-15.580830
 20
-2.195110
 30
0.0
 10
-15.580830
 20
-2.195370
 30
0.0
 10
-15.580830
 20
-2.195610
 30
0.0
 10
-15.580830
 20
-2.195880
 30
0.0
 10
-15.580830
 20
-2.196130
 30
0.0
 10
-15.580875
 20
-2.196040
 30
0.0
 10
-15.580893
 20
-2.195960
 30
0.0
 10
-15.580893
 20
-2.195870
 30
0.0
  0
LWPOLYLINE
  5
10d
100
AcDbEntity
  8
coconut
 62
1
100
AcDbPolyline
 90
24
 70
1
 10
-21.187510
 20
8.485490
 30
0.0
 10
-21.350076
 20
8.687780
 30
0.0
 10
-21.512631
 20
8.890080
 30
0.0
 10
-21.675214
 20
9.092390
 30
0.0
 10
-21.837769
 20
9.294680
 30
0.0
 10
-23.588836
 20
7.644410
 30
0.0
 10
-25.339873
 20
5.994110
 30
0.0
 10
-27.090931
 20
4.343830
 30
0.0
 10
-28.841986
 20
2.693530
 30
0.0
 10
-28.849286
 20
2.633030
 30
0.0
 10
-28.865526
 20
2.475220
 30
0.0
 10
-28.881766
 20
2.255770
 30
0.0
 10
-28.889066
 20
2.010280
 30
0.0
 10
-28.802196
 20
1.600710
 30
0.0
 10
-28.612352
 20
1.345480
 30
0.0
 10
-28.422734
 20
1.214430
 30
0.0
 10
-28.336674
 20
1.177430
 30
0.0
 10
-26.549020
 20
3.004430
 30
0.0
 10
-24.761356
 20
4.831440
 30
0.0
 10
-22.973712
 20
6.658450
 30
0.0
 10
-21.186057
 20
8.485460
 30
0.0
 10
-21.186075
 20
8.485460
 30
0.0
 10
-21.186075
 20
8.485460
 30
0.0
 10
-21.186075
 20
8.485460
 30
0.0
  0
SPLINE
  5
10e
100
AcDbEntity
  8
size
 62
1
100
AcDbSpline
 70
0
 71
3
 72
22
 73
18
 74
16
 40
0.000000
 40
0.000000
 40
0.000000
 40
0.000000
 40
74.086941
 40
146.854594
 40
220.941535
 40
295.028476
 40
367.796129
 40
441.883070
 40
515.970011
 40
588.737664
 40
662.824605
 40
736.911546
 40
809.679199
 40
883.766140
 40
982.454839
 40
1078.216461
 40
1176.905159
 40
1176.905159
 40
1176.905159
 40
1176.905159
 10
-0.394314
 20
-637.450556
 30
0.0
 10
-25.249417
 20
-640.318611
 30
0.0
 10
-74.517020
 20
-646.003648
 30
0.0
 10
-137.301208
 20
-689.614359
 30
0.0
 10
-179.369855
 20
-751.968945
 30
0.0
 10
-194.032270
 20
-826.246198
 30
0.0
 10
-179.301026
 20
-900.273274
 30
0.0
 10
-137.376241
 20
-963.182496
 30
0.0
 10
-74.475763
 20
-1005.104965
 30
0.0
 10
-0.416395
 20
-1019.836704
 30
0.0
 10
73.738678
 20
-1005.174597
 30
0.0
 10
136.548304
 20
-963.104223
 30
0.0
 10
178.480202
 20
-900.326559
 30
0.0
 10
195.044441
 20
-817.922840
 30
0.0
 10
170.633722
 20
-727.967960
 30
0.0
 10
98.433334
 20
-652.868936
 30
0.0
 10
32.877176
 20
-642.641335
 30
0.0
 10
-0.394314
 20
-637.450556
 30
0.0
 11
-0.394314
 21
-637.450556
 31
0.0
 11
-73.041507
 21
-651.985350
 31
0.0
 11
-133.545599
 21
-692.412892
 31
0.0
 11
-174.774875
 21
-753.967922
 31
0.0
 11
-189.147353
 21
-826.647401
 31
0.0
 11
-174.951088
 21
-898.016844
 31
0.0
 11
-133.859417
 21
-959.663818
 31
0.0
 11
-72.212443
 21
-1000.755489
 31
0.0
 11
-0.843000
 21
-1014.951754
 31
0.0
 11
71.836479
 21
-1000.579276
 31
0.0
 11
133.391508
 21
-959.350000
 31
0.0
 11
173.819050
 21
-898.845908
 31
0.0
 11
188.353844
 21
-826.198715
 31
0.0
 11
162.584188
 21
-730.933905
 31
0.0
 11
94.870496
 21
-663.220213
 31
0.0
 11
-0.394314
 21
-637.450556
 31
0.0
  0
LWPOLYLINE
  5
10f
100
AcDbEntity
  8
coconut
 62
1
100
AcDbPolyline
 90
20
 70
1
 10
-38.950808
 20
2.987910
 30
0.0
 10
-38.985898
 20
2.930510
 30
0.0
 10
-39.021438
 20
2.873610
 30
0.0
 10
-39.056518
 20
2.816310
 30
0.0
 10
-39.089898
 20
2.758210
 30
0.0
 10
-39.110648
 20
2.788510
 30
0.0
 10
-39.133568
 20
2.821610
 30
0.0
 10
-39.154488
 20
2.851810
 30
0.0
 10
-39.169548
 20
2.873210
 30
0.0
 10
-39.201038
 20
2.920310
 30
0.0
 10
-39.225748
 20
2.960410
 30
0.0
 10
-39.241988
 20
2.988610
 30
0.0
 10
-39.244688
 20
3.000710
 30
0.0
 10
-39.216548
 20
3.001360
 30
0.0
 10
-39.148078
 20
2.998360
 30
0.0
 10
-39.054468
 20
2.993360
 30
0.0
 10
-38.950177
 20
2.987360
 30
0.0
 10
-38.950167
 20
2.987570
 30
0.0
 10
-38.950131
 20
2.987760
 30
0.0
 10
-38.950086
 20
2.987980
 30
0.0
  0
ENDSEC
  0
SECTION
  2
OBJECTS
  0
DICTIONARY
  5
C
330
0
100
AcDbDictionary
  3
ACAD_GROUP
350
D
  3
ACAD_MLINESTYLE
350
17
  0
DICTIONARY
  5
D
330
C
100
AcDbDictionary
  0
DICTIONARY
  5
1A
330
C
100
AcDbDictionary
  0
DICTIONARY
  5
17
330
C
100
AcDbDictionary
  3
STANDARD
350
18
  0
DICTIONARY
  5
19
330
C
100
AcDbDictionary
  0
ENDSEC
  0
EOF
